<?xml version="1.0" encoding="iso-8859-1"?>
<!-- Uploaded to: SVG Repo, www.svgrepo.com, Generator: SVG Repo Mixer Tools -->
<!DOCTYPE svg PUBLIC "-//W3C//DTD SVG 1.1//EN" "http://www.w3.org/Graphics/SVG/1.1/DTD/svg11.dtd">
<svg fill="#ff0000" height="800px" width="800px" version="1.1" id="Capa_1" xmlns="http://www.w3.org/2000/svg" xmlns:xlink="http://www.w3.org/1999/xlink" 
	 viewBox="0 0 211.688 211.688" xml:space="preserve">
<path d="M179.299,191.209H35.037c-0.985,0-1.824-0.718-1.977-1.692c-0.151-0.974,0.429-1.913,1.367-2.213
	c0.258-0.083,25.865-8.312,32.247-13.854c4.145-3.6,9.263-8.753,12.945-17.168c-4.459-1.561-7.579-5.793-7.579-10.708
	c0-6.259,5.092-11.351,11.351-11.351h0.923c0.056-4.837-0.46-10.119-1.541-15.749c-13.22,0.768-32.646,2.531-43.395,3.548
	c-2.057,0.391-4.146,0.588-6.212,0.588C14.879,122.612,0,107.733,0,89.444s14.879-33.167,33.167-33.167c0.013,0,0.025,0,0.043,0
	c0.001,0,0.002,0,0.003,0c1.403,0.002,2.788,0.091,4.146,0.264c5.284-13.588,18.362-22.603,33.062-22.603
	c7.166,0,13.993,2.098,19.869,6.087c9.215-12.276,23.674-19.547,39.074-19.547c0,0-0.001,0,0,0
	c20.179,0,38.291,12.474,45.545,31.196c0.451-0.02,0.878-0.029,1.296-0.029c19.565,0,35.482,15.917,35.482,35.483
	s-15.917,35.483-35.482,35.483c-2.09,0-4.22-0.193-6.331-0.574c-8.284-0.817-22.945-1.833-37.893-2.63
	c-0.198,0.013-0.399,0.026-0.6,0.037c-0.957,5.27-1.413,10.225-1.359,14.78h0.922c6.259,0,11.351,5.092,11.351,11.351
	c0,4.914-3.12,9.147-7.578,10.708c3.682,8.416,8.8,13.569,12.945,17.168c5.297,4.601,25.073,11.56,32.246,13.854
	c0.938,0.3,1.519,1.239,1.367,2.213C181.123,190.491,180.284,191.209,179.299,191.209z M46.898,187.209h120.539
	c-8.134-3.009-18.359-7.23-22.398-10.738c-4.636-4.025-10.402-9.86-14.421-19.606H99.421c-1.104,0-2-0.896-2-2s0.896-2,2-2h32.438
	c3.677-0.455,6.436-3.571,6.436-7.291c0-4.053-3.298-7.351-7.351-7.351h-2.867c-1.07,0-1.95-0.842-1.998-1.911
	c-0.233-5.241,0.2-10.999,1.289-17.144c-15.263-0.765-27.808-1.138-35.307-1.061c-0.93,0.01-1.782,0.026-2.553,0.05h0.001
	c-0.841,0.026-1.746,0.062-2.705,0.105c1.058,5.673,1.563,11.024,1.51,15.96h15.589c1.104,0,2,0.896,2,2s-0.896,2-2,2H83.392
	c-4.053,0-7.351,3.297-7.351,7.351c0,3.754,2.811,6.893,6.539,7.302c0.615,0.068,1.166,0.417,1.488,0.947
	c0.323,0.529,0.383,1.178,0.161,1.757c-4.029,10.521-10.097,16.691-14.932,20.89C65.258,179.979,55.032,184.2,46.898,187.209z
	 M146.373,116.24c9.68,0.613,18.318,1.266,23.976,1.826c0.054,0.005,0.108,0.013,0.162,0.023c1.902,0.347,3.818,0.523,5.694,0.523
	c17.359,0,31.482-14.123,31.482-31.483c0-17.338-14.088-31.448-31.418-31.483c1.359,4.575,2.046,9.321,2.046,14.166
	C178.315,90.965,165.034,109.074,146.373,116.24z M33.167,60.277C17.084,60.277,4,73.361,4,89.444s13.084,29.167,29.167,29.167
	c1.844,0,3.712-0.18,5.55-0.534c0.063-0.012,0.127-0.021,0.19-0.027c11.235-1.063,32.071-2.955,45.38-3.666
	c1.617-0.087,3.124-0.156,4.482-0.204c0.11-0.004,0.221-0.008,0.329-0.011c0.097-0.003,0.191-0.006,0.286-0.009h0.001
	c7.22-0.222,21.421,0.163,39.104,1.06c0.092,0.005,0.185,0.01,0.276,0.014c0.021,0.001,0.042,0.002,0.063,0.003
	c0.027,0.001,0.056,0.003,0.084,0.004c0.096,0.005,0.188,0.009,0.284,0.014c0.021,0.001,0.043,0.003,0.062,0.003
	c0.033,0.001,0.064,0.003,0.097,0.005c0.012,0,0.021,0.001,0.032,0.001c0.036,0.002,0.073,0.004,0.109,0.006
	c0.097,0.005,0.194,0.01,0.291,0.015c0.025,0.001,0.049,0.002,0.073,0.003c0.695,0.036,1.392,0.073,2.086,0.11
	c23.65-1.716,42.368-21.507,42.368-45.588c0-5.273-0.884-10.418-2.63-15.322c-0.008-0.021-0.016-0.041-0.023-0.063
	c-0.019-0.052-0.037-0.105-0.056-0.157c-0.188-0.522-0.388-1.041-0.596-1.558c-0.022-0.056-0.043-0.113-0.061-0.17
	c-6.806-16.867-23.269-28.063-41.586-28.063c-14.162,0-27.453,6.695-35.913,17.999c7.617,6.513,12.452,16.188,12.452,26.973
	c0,1.104-0.896,2-2,2s-2-0.896-2-2c0-17.36-14.123-31.483-31.482-31.483c-0.114,0-0.227-0.01-0.336-0.028
	c-12.655,0.133-23.906,7.793-28.721,19.362c14.337,3.659,24.971,16.683,24.971,32.143c0,1.104-0.896,2-2,2s-2-0.896-2-2
	c0-14.265-10.294-26.171-23.844-28.681c-0.055-0.005-0.11-0.013-0.165-0.022c-1.712-0.306-3.434-0.462-5.119-0.464
	c-0.006,0.001-0.012,0-0.02,0C33.181,60.277,33.174,60.277,33.167,60.277z"/>
</svg>